# xmcd CD database file
#
# Track frame offsets:
#	150
#	9712
#	20833
#	33372
#	45707
#	56663
#	67924
#	84222
#	96566
#	116374
#	126630
#	137052
#	149700
#	162270
#
# Disc length: 2324 seconds
#
# Revision: 0
# Processed by: cddbd v1.5.2PL0 Copyright (c) Steve Scherf et al.
# Submitted via: CDex 1.51
#
DISCID=ca09120e
DTITLE=Dinah Washington - Mad About The Boy
DYEAR=1900
DGENRE=Jazz
TTITLE0=September In The Rain
TTITLE1=What A Difference A Day Makes
TTITLE2=Ain't Misbehavin
TTITLE3=Baby You've Got What It Takes
TTITLE4=I Cried For You
TTITLE5=Our Love Is Here To Stay
TTITLE6=Stardust
TTITLE7=Teach Me Tonight
TTITLE8=I Could Write A Book
TTITLE9=We Have Love
TTITLE10=It Could Happen To You
TTITLE11=I Wanna Be Loved
TTITLE12=Mad About The Boy
TTITLE13=Unforgettable
EXTD=
EXTT0=
EXTT1=
EXTT2=
EXTT3=
EXTT4=
EXTT5=
EXTT6=
EXTT7=
EXTT8=
EXTT9=
EXTT10=
EXTT11=
EXTT12=
EXTT13=
PLAYORDER=
